<svg width="40" height="41" viewBox="0 0 40 41" fill="none" xmlns="http://www.w3.org/2000/svg">
<rect y="0.109863" width="40" height="40" rx="20" fill="#E5E7EB"/>
<g clip-path="url(#clip0_834_10860)">
<path d="M23.4102 17.6085L19.9736 14.1719L16.537 17.6085" fill="white" fill-opacity="0.01"/>
<path d="M26.161 22.4197V23.2445C26.161 24.3993 26.161 24.9767 25.9363 25.4178C25.7386 25.8058 25.4232 26.1212 25.0352 26.3189C24.5941 26.5437 24.0167 26.5437 22.8619 26.5437H17.0884C15.9335 26.5437 15.3562 26.5437 14.9151 26.3189C14.5271 26.1212 14.2117 25.8058 14.014 25.4178C13.7892 24.9767 13.7892 24.3993 13.7892 23.2445V22.4197M23.4117 17.6085L19.9751 14.1719M19.9751 14.1719L16.5385 17.6085M19.9751 14.1719V22.4197" stroke="black" stroke-width="1.99943" stroke-linecap="round" stroke-linejoin="round"/>
</g>
<defs>
<clipPath id="clip0_834_10860">
<rect width="16.4957" height="16.4957" fill="white" transform="translate(11.7264 12.1099)"/>
</clipPath>
</defs>
</svg>
