<svg width="49" height="48" viewBox="0 0 49 48" fill="none" xmlns="http://www.w3.org/2000/svg">
<g clip-path="url(#clip0_26_9952)">
<g clip-path="url(#clip1_26_9952)">
<path d="M44.4945 27.0236C44.5109 28.3295 44.0023 29.5694 43.0824 30.4972C43.0805 30.4991 43.0786 30.5011 43.0767 30.5032C43.0693 30.5113 43.0649 30.5155 43.0576 30.5224C43.0519 30.5278 43.0444 30.5349 43.0322 30.547L41.8167 31.7535C41.2984 32.268 41.002 32.9665 41.002 33.7037V35.4523C41.002 38.1583 38.7846 40.3609 36.0584 40.3609H34.295C33.5544 40.3609 32.8506 40.6531 32.3321 41.1678L31.0995 42.3913C30.1307 43.3545 28.8667 43.8258 27.601 43.8258C26.3355 43.8258 25.0711 43.3546 24.1021 42.4095L22.8529 41.1679C22.3344 40.6531 21.6306 40.3609 20.8899 40.3609H19.1266C16.4004 40.3609 14.183 38.1583 14.183 35.4523V33.7037C14.183 32.9659 13.8862 32.269 13.3708 31.7391L13.3672 31.7355L12.1356 30.5299C10.2139 28.6237 10.1978 25.5082 12.1189 23.5865L12.7732 22.9562L12.8269 22.9013C13.3632 22.3393 14.3819 20.9008 14.3819 20.1713V18.4314C14.3819 15.7154 16.5987 13.5077 19.3244 13.5077H21.0873C21.8285 13.5077 22.5319 13.2104 23.0497 12.6943L24.2827 11.4656C26.203 9.5371 29.3395 9.53614 31.2779 11.4515L32.5268 12.6943C33.0446 13.2104 33.748 13.5077 34.4892 13.5077H36.2521C38.9778 13.5077 41.1946 15.7154 41.1946 18.4314V20.1901C41.1946 20.9268 41.491 21.6279 42.0091 22.1442L43.2427 23.3736C44.1773 24.285 44.4945 25.7184 44.4945 27.0236Z" fill="#FFCBB9" fill-opacity="0.35" stroke="url(#paint0_linear_26_9952)" stroke-width="0.417391" stroke-linecap="round" stroke-linejoin="round"/>
<path d="M35.312 13.5347V12.7521C35.312 9.93535 33.0208 7.64626 30.2034 7.64626H28.4552C27.7763 7.64626 27.1314 7.37306 26.6561 6.89794L25.4172 5.66092C23.4144 3.67559 20.1727 3.67559 18.1869 5.6762L16.9649 6.89794C16.4897 7.37306 15.8448 7.64626 15.1659 7.64626H13.4177C10.6003 7.64626 8.30908 9.93535 8.30908 12.7521V14.4829C8.30908 15.1787 8.03752 15.8234 7.56229 16.2986L6.32332 17.539C4.33755 19.5396 4.35453 22.7823 6.34029 24.7659L7.56229 25.9707C8.03752 26.4628 8.30908 27.1076 8.30908 27.788V29.5341C8.30908 32.3509 10.6003 34.6434 13.4177 34.6434H14.195V33.6765C14.195 32.996 13.9234 32.3512 13.4482 31.8591L12.2262 30.6544C10.2405 28.6707 10.2235 25.428 12.2093 23.4274L13.4482 22.187C13.9234 21.7119 14.195 21.0671 14.195 20.3714V18.6406C14.195 15.8238 16.4863 13.5347 19.3037 13.5347H21.0518C21.7307 13.5347 22.3757 13.2615 22.8509 12.7864L24.0729 11.5646C26.0587 9.56404 29.3004 9.56404 31.3031 11.5494L32.5421 12.7864C33.0173 13.2615 33.6622 13.5347 34.3411 13.5347H35.312Z" fill="url(#paint1_linear_26_9952)"/>
<g opacity="0.5">
<g filter="url(#filter0_f_26_9952)">
<path d="M35.9433 16.2365L37.1618 17.455C38.1264 18.4026 38.651 19.6888 38.651 21.0426C38.668 22.3964 38.1433 23.6842 37.1956 24.6471C37.1843 24.6596 37.1731 24.6705 37.1618 24.6814C37.1561 24.6868 37.1505 24.6923 37.1448 24.6979L35.9433 25.8994C35.4695 26.3733 35.1987 27.0163 35.1987 27.6949V29.4363C35.1987 32.2455 32.9141 34.5318 30.1048 34.5318H28.3617C27.6848 34.5318 27.0417 34.8008 26.5678 35.2747L25.3494 36.4931C24.3509 37.4932 23.0478 37.9823 21.7447 37.9823C20.4417 37.9823 19.1386 37.4932 18.1401 36.5117L16.9047 35.2747C16.4309 34.8008 15.7878 34.5318 15.1108 34.5318H14.1428V33.5674C14.1428 32.8889 13.872 32.2458 13.3982 31.755L12.1797 30.5535C10.1997 28.5752 10.1828 25.3413 12.1628 23.3461L13.3982 22.1091C13.872 21.6352 14.1428 20.9922 14.1428 20.2983V18.5722C14.1428 15.763 16.4274 13.4801 19.2367 13.4801H20.9798C21.6567 13.4801 22.2998 13.2076 22.7736 12.7338L23.9921 11.5154C25.9721 9.5202 29.2045 9.5202 31.2014 11.5002L32.4368 12.7338C32.9106 13.2076 33.5537 13.4801 34.2306 13.4801H35.1987V14.4444C35.1987 15.1196 35.4695 15.7627 35.9433 16.2365Z" fill="url(#paint2_linear_26_9952)"/>
</g>
</g>
<path fill-rule="evenodd" clip-rule="evenodd" d="M24.4781 32.5331C24.2062 32.8213 23.8325 32.9738 23.4248 32.9738C23.0342 32.9738 22.6605 32.8213 22.3887 32.5331C21.8111 31.9567 21.8111 31.0074 22.3887 30.4311L31.1199 21.7179C31.6975 21.1432 32.6317 21.1432 33.2093 21.7179C33.7868 22.2942 33.7868 23.2452 33.2093 23.8216L24.4781 32.5331ZM32.1899 32.9738C31.3719 32.9738 30.7207 32.3227 30.7207 31.5046C30.7207 30.7049 31.3719 30.0521 32.1899 30.0521C32.9913 30.0521 33.6424 30.7049 33.6424 31.5046C33.6424 32.3227 32.9913 32.9738 32.1899 32.9738ZM24.8772 22.7394C24.8772 21.938 24.2261 21.2869 23.4247 21.2869C22.6233 21.2869 21.9555 21.938 21.9555 22.7394C21.9555 23.5591 22.6233 24.2086 23.4247 24.2086C24.2261 24.2086 24.8772 23.5591 24.8772 22.7394Z" fill="url(#paint3_linear_26_9952)"/>
<mask id="mask0_26_9952" style="mask-type:luminance" maskUnits="userSpaceOnUse" x="21" y="21" width="13" height="12">
<path d="M24.4781 32.5331C24.2062 32.8213 23.8325 32.9738 23.4248 32.9738C23.0342 32.9738 22.6605 32.8213 22.3887 32.5331C21.8111 31.9567 21.8111 31.0074 22.3887 30.4311L31.1199 21.7179C31.6975 21.1432 32.6317 21.1432 33.2093 21.7179C33.7868 22.2942 33.7868 23.2452 33.2093 23.8216L24.4781 32.5331ZM32.1899 32.9738C31.3719 32.9738 30.7207 32.3227 30.7207 31.5046C30.7207 30.7049 31.3719 30.0521 32.1899 30.0521C32.9913 30.0521 33.6424 30.7049 33.6424 31.5046C33.6424 32.3227 32.9913 32.9738 32.1899 32.9738ZM24.8772 22.7394C24.8772 21.938 24.2261 21.2869 23.4247 21.2869C22.6233 21.2869 21.9555 21.938 21.9555 22.7394C21.9555 23.5591 22.6233 24.2086 23.4247 24.2086C24.2261 24.2086 24.8772 23.5591 24.8772 22.7394Z" fill="white"/>
</mask>
<g mask="url(#mask0_26_9952)">
<path d="M24.7293 32.8242L24.6112 32.7061L24.6077 32.7097L24.7293 32.8242ZM22.5208 32.8242L22.6424 32.7097L22.6388 32.7061L22.5208 32.8242ZM23.6251 33.3912C24.1052 33.3912 24.5516 33.1955 24.8772 32.8211L24.6177 32.5564C24.3641 32.8482 24.0139 33.0052 23.6251 33.0052V33.3912ZM22.3729 32.8211C22.7025 33.1947 23.1551 33.3912 23.6251 33.3912V33.0052C23.2501 33.0052 22.8944 32.8491 22.6362 32.5564L22.3729 32.8211ZM22.5156 30.4695C21.7688 31.1566 21.7688 32.2867 22.5156 32.9738L22.7903 32.7208C22.1953 32.1734 22.1953 31.2699 22.7903 30.7224L22.5156 30.4695ZM31.3134 21.7043L22.3729 30.6446L22.615 30.8869L31.5555 21.9466L31.3134 21.7043ZM33.6424 21.846C32.9502 21.1005 31.8303 21.1005 31.1381 21.846L31.3923 22.1216C31.944 21.5275 32.8365 21.5275 33.3882 22.1216L33.6424 21.846ZM33.4997 24.2086C34.2465 23.5219 34.2465 22.3909 33.4997 21.7043L33.2251 21.957C33.8201 22.5041 33.8201 23.4087 33.2251 23.9558L33.4997 24.2086ZM24.7019 32.9738L33.6424 24.0336L33.4004 23.7912L24.4598 32.7314L24.7019 32.9738ZM30.7207 31.7216C30.7207 32.6506 31.4614 33.3912 32.3903 33.3912V33.0551C31.6468 33.0551 31.0567 32.4648 31.0567 31.7216H30.7207ZM32.3903 30.0521C31.4626 30.0521 30.7207 30.8009 30.7207 31.7216H31.0567C31.0567 30.9909 31.6457 30.3917 32.3903 30.3917V30.0521ZM34.0598 31.7216C34.0598 30.8022 33.3116 30.0521 32.3903 30.0521V30.3917C33.124 30.3917 33.7204 30.9896 33.7204 31.7216H34.0598ZM32.3903 33.3912C33.3127 33.3912 34.0598 32.6493 34.0598 31.7216H33.7204C33.7204 32.4661 33.1228 33.0551 32.3903 33.0551V33.3912ZM23.6251 21.6264C24.3589 21.6264 24.9552 22.2228 24.9552 22.9564H25.2946C25.2946 22.0351 24.5462 21.2869 23.6251 21.2869V21.6264ZM22.2914 22.9564C22.2914 22.2253 22.8962 21.6264 23.6251 21.6264V21.2869C22.7158 21.2869 21.9555 22.0326 21.9555 22.9564H22.2914ZM23.6251 24.2899C22.8973 24.2899 22.2914 23.7 22.2914 22.9564H21.9555C21.9555 23.8884 22.7147 24.626 23.6251 24.626V24.2899ZM24.9552 22.9564C24.9552 23.7024 24.3578 24.2899 23.6251 24.2899V24.626C24.5474 24.626 25.2946 23.886 25.2946 22.9564H24.9552Z" fill="url(#paint4_linear_26_9952)"/>
</g>
</g>
</g>
<defs>
<filter id="filter0_f_26_9952" x="4.00794" y="3.33883" width="41.3217" height="41.3217" filterUnits="userSpaceOnUse" color-interpolation-filters="sRGB">
<feFlood flood-opacity="0" result="BackgroundImageFix"/>
<feBlend mode="normal" in="SourceGraphic" in2="BackgroundImageFix" result="shape"/>
<feGaussianBlur stdDeviation="3.33913" result="effect1_foregroundBlur_26_9952"/>
</filter>
<linearGradient id="paint0_linear_26_9952" x1="-20.252" y1="-34.2184" x2="2714.94" y2="3094.35" gradientUnits="userSpaceOnUse">
<stop stop-color="white" stop-opacity="0.4"/>
<stop offset="1" stop-color="white" stop-opacity="0"/>
</linearGradient>
<linearGradient id="paint1_linear_26_9952" x1="1701.46" y1="4.17401" x2="1701.46" y2="3397.12" gradientUnits="userSpaceOnUse">
<stop stop-color="#FFB37F"/>
<stop offset="1" stop-color="#FF7B0D"/>
</linearGradient>
<linearGradient id="paint2_linear_26_9952" x1="1408.95" y1="10.015" x2="1408.95" y2="2806.54" gradientUnits="userSpaceOnUse">
<stop stop-color="#FFB37F"/>
<stop offset="1" stop-color="#FF7B0D"/>
</linearGradient>
<linearGradient id="paint3_linear_26_9952" x1="1107.64" y1="232.332" x2="-193.993" y2="274.764" gradientUnits="userSpaceOnUse">
<stop stop-color="white"/>
<stop offset="1" stop-color="white" stop-opacity="0.2"/>
</linearGradient>
<linearGradient id="paint4_linear_26_9952" x1="226.095" y1="175.197" x2="976.779" y2="1104.93" gradientUnits="userSpaceOnUse">
<stop stop-color="white" stop-opacity="0.25"/>
<stop offset="1" stop-color="white" stop-opacity="0"/>
</linearGradient>
<clipPath id="clip0_26_9952">
<rect width="48" height="48" fill="white" transform="translate(0.666672)"/>
</clipPath>
<clipPath id="clip1_26_9952">
<rect width="48" height="48" fill="white" transform="translate(0.666672)"/>
</clipPath>
</defs>
</svg>
